<svg version="1.1" id="icons" xmlns="http://www.w3.org/2000/svg" x="0" y="0" viewBox="0 0 64 64" style="enable-background:new 0 0 64 64" xml:space="preserve"><style>.st0{display:none}.st1{display:inline}.st2{fill:#5edfc5}.st3{fill:none;stroke:#414042;stroke-miterlimit:10}.st4,.st5{display:inline;fill:#d1d3d4}.st5{fill:#f1f2f2}.st6{fill:#fff}.st6,.st7,.st8{display:inline}.st7{fill:none;stroke:#414042;stroke-miterlimit:10}.st8{fill:#f5ab35}.st9{fill:#414042}.st10{fill:#fff}.st11,.st12{fill:#36d7b7}.st12{display:inline}.st13{fill:#f1f2f2}.st14{fill:#f5ab35}.st15{fill:#e6e7e8}.st16{fill:#a7a9ac}.st17,.st18{display:inline}.st17{fill:none;stroke:#414042;stroke-miterlimit:10;stroke-dasharray:1}.st18{fill:#e6e7e8}.st19{fill:none;stroke:#414042;stroke-linecap:round;stroke-miterlimit:10}.st20{fill:#939598}.st22{display:inline;fill:none;stroke:#bcbec0;stroke-miterlimit:10}.st27,.st30{display:inline;fill:#f7bc5d}.st30{fill:#939598}.st32,.st33,.st34{display:inline;fill:#a7a9ac}.st33,.st34{fill:#414042}.st34{fill:#29a189}.st38{fill:#d1d3d4}.st40{display:inline;fill:none;stroke:#414042;stroke-linecap:round;stroke-miterlimit:10}.st41{fill:#bcbec0}</style><g id="XMLID_314_"><path id="XMLID_151_" class="st13" d="M34.6 41.4v5c0 1.5-1.3 2.8-2.8 2.8-1.5 0-2.8-1.3-2.8-2.8v-5h5.6z"/><path id="XMLID_150_" class="st3" d="M34.6 41.4v5c0 1.5-1.3 2.8-2.8 2.8-1.5 0-2.8-1.3-2.8-2.8v-5h5.6z"/><circle id="XMLID_148_" class="st14" cx="32" cy="25.3" r="10.2"/><path id="XMLID_147_" class="st14" d="M27.1 29.4h9.8v11.2h-9.8z"/><path id="XMLID_141_" class="st15" d="M27 40h10v2.8H27z"/><path id="XMLID_140_" class="st3" d="M27 40h10v2.8H27z"/><path id="XMLID_139_" class="st3" d="M29.3 44.4h3.2"/><path id="XMLID_138_" class="st3" d="M31.8 46H35"/><g id="XMLID_182_"><g id="XMLID_245_"><path id="XMLID_246_" class="st9" d="M31.2 32.2V31c-1.4-.2-2.7-.8-3.8-1.9l1.5-1.8c.9.7 1.6 1.2 2.3 1.4v-2.4c-1.1-.3-2-.7-2.5-1.2s-.8-1.2-.8-2.1c0-.9.3-1.7.9-2.3.6-.6 1.4-1 2.4-1.1v-.8h1.7v.8c1.1.2 2.2.6 3.3 1.4l-1.3 1.9c-.7-.5-1.3-.8-1.9-1v2.4c1.2.3 2 .7 2.6 1.2.6.5.8 1.2.8 2.2 0 .9-.3 1.7-.9 2.3-.6.6-1.5 1-2.5 1.1v1.1h-1.8zm0-10.4c-.5.2-.7.5-.7.9s.2.8.7 1v-1.9zm2.5 5.9c0-.2-.1-.4-.2-.6-.1-.2-.3-.3-.7-.4v2c.7-.1.9-.5.9-1z"/></g></g><g id="XMLID_957_"><path id="XMLID_961_" class="st3" d="M21.3 35h1"/><path id="XMLID_960_" class="st3" d="M23.8 35h1"/><path id="XMLID_959_" class="st3" d="M23 36.7v-1"/><path id="XMLID_958_" class="st3" d="M23 34.2v-1"/></g><g id="XMLID_209_"><path id="XMLID_213_" class="st3" d="M12.4 34.7h1.3"/><path id="XMLID_212_" class="st3" d="M15.7 34.7h1.2"/><path id="XMLID_211_" class="st3" d="M14.7 36.9v-1.2"/><path id="XMLID_210_" class="st3" d="M14.7 33.7v-1.3"/></g><g id="XMLID_152_"><path id="XMLID_187_" class="st3" d="M48.1 26.4h1"/><path id="XMLID_186_" class="st3" d="M50.6 26.4h1"/><path id="XMLID_185_" class="st3" d="M49.8 28.2v-1"/><path id="XMLID_183_" class="st3" d="M49.8 25.7v-1"/></g><g id="XMLID_198_"><path id="XMLID_202_" class="st3" d="M40 38.9h1.3"/><path id="XMLID_201_" class="st3" d="M43.4 38.9h1.3"/><path id="XMLID_200_" class="st3" d="M42.3 41.3V40"/><path id="XMLID_199_" class="st3" d="M42.3 37.9v-1.4"/></g><g id="XMLID_204_"><path id="XMLID_208_" class="st3" d="M19 18.8h1.3"/><path id="XMLID_207_" class="st3" d="M22.4 18.8h1.3"/><path id="XMLID_206_" class="st3" d="M21.3 21.2v-1.4"/><path id="XMLID_205_" class="st3" d="M21.3 17.7v-1.3"/></g><g id="XMLID_188_"><path id="XMLID_197_" class="st3" d="M38.4 16.5h.9"/><path id="XMLID_196_" class="st3" d="M40.9 16.5h1"/><path id="XMLID_195_" class="st3" d="M40.1 18.3v-1"/><path id="XMLID_194_" class="st3" d="M40.1 15.8v-1"/></g><circle id="XMLID_980_" class="st3" cx="46.7" cy="17" r=".9"/><circle id="XMLID_184_" class="st3" cx="20.3" cy="41.3" r=".9"/><circle id="XMLID_149_" class="st3" cx="16.3" cy="25.9" r="1.1"/><circle id="XMLID_203_" class="st3" cx="41.9" cy="32.5" r=".9"/></g></svg>